<svg version="1.1" id="Layer_1" xmlns="http://www.w3.org/2000/svg" xmlns:xlink="http://www.w3.org/1999/xlink" x="0px" y="0px"
	 width="100%" viewBox="0 0 3264 3264" enable-background="new 0 0 3264 3264" xml:space="preserve">
<path fill="#000000" opacity="1.000000" stroke="none" 
	d="
M1884.000000,3266.000000 
	C1256.000244,3266.000000 629.000366,3266.000000 2.000421,3266.000000 
	C2.000280,2178.000488 2.000280,1090.000977 2.000140,2.001150 
	C1089.999146,2.000767 2177.998291,2.000767 3265.998047,2.000383 
	C3265.998779,1089.998901 3265.998779,2177.997803 3265.999512,3265.998291 
	C2805.666748,3266.000000 2345.333252,3266.000000 1884.000000,3266.000000 
M2333.806885,1436.673950 
	C2331.000977,1440.482056 2328.194824,1444.290039 2325.146729,1448.426636 
	C2287.906006,1396.389771 2251.389648,1345.364868 2215.310791,1294.951660 
	C2200.019287,1294.951660 2185.547607,1294.951660 2169.208008,1294.951660 
	C2214.331055,1357.585327 2258.515869,1418.916748 2302.898193,1480.522705 
	C2280.400879,1511.794434 2258.177734,1542.442383 2236.217773,1573.277954 
	C2214.433350,1603.866821 2191.993652,1634.004883 2169.708496,1666.352173 
	C2183.838135,1666.352173 2195.809570,1666.051758 2207.754150,1666.484009 
	C2213.371826,1666.687256 2216.845947,1664.868774 2220.083984,1660.286987 
	C2246.738281,1622.572388 2273.606689,1585.008911 2300.451172,1547.428833 
	C2308.491455,1536.173340 2316.661621,1525.010742 2325.266357,1513.123169 
	C2332.263428,1522.747192 2338.742676,1531.559448 2345.118896,1540.445679 
	C2373.988037,1580.679810 2402.796875,1620.957275 2431.762451,1661.121826 
	C2433.340820,1663.310425 2436.091064,1666.030396 2438.376221,1666.107300 
	C2452.198486,1666.571655 2466.044189,1666.338379 2481.584229,1666.338379 
	C2436.542969,1603.418579 2392.669189,1542.129272 2348.569092,1480.524170 
	C2392.654541,1419.078857 2436.705811,1357.680908 2482.165039,1294.320923 
	C2467.053467,1294.320923 2454.538086,1294.557983 2442.040039,1294.197510 
	C2437.418701,1294.064331 2434.660156,1295.796387 2432.191162,1299.346558 
	C2424.980957,1309.714355 2417.610596,1319.971069 2410.257324,1330.238770 
	C2385.101074,1365.366089 2359.925293,1400.479614 2333.806885,1436.673950 
M1694.313599,1386.999878 
	C1694.313599,1416.991089 1694.519775,1446.984131 1694.233521,1476.972656 
	C1694.071533,1493.948242 1694.986938,1510.798706 1697.845825,1527.513916 
	C1702.638916,1555.537354 1710.266357,1582.639038 1726.263794,1606.582886 
	C1745.248291,1634.998169 1770.448853,1654.686401 1804.467651,1662.555786 
	C1820.598633,1666.287231 1836.748901,1666.600952 1853.016724,1666.296021 
	C1899.536133,1665.424316 1936.357666,1646.262939 1961.810791,1606.942505 
	C1984.685913,1571.604736 1993.539429,1531.897095 1994.126709,1490.548340 
	C1995.006714,1428.579346 1994.357788,1366.588379 1994.359009,1304.606812 
	C1994.359009,1301.344360 1994.358887,1298.081909 1994.358887,1294.576538 
	C1981.794800,1294.576538 1970.173706,1294.576538 1957.641235,1294.576538 
	C1957.641235,1298.431519 1957.641235,1302.035278 1957.641235,1305.639038 
	C1957.641235,1357.956909 1957.729736,1410.274902 1957.580688,1462.592407 
	C1957.541992,1476.188354 1956.802979,1489.783691 1956.311157,1503.376709 
	C1955.584595,1523.463501 1951.055420,1542.822266 1943.834229,1561.442993 
	C1933.635742,1587.741333 1917.234497,1608.985352 1890.762817,1620.681274 
	C1870.560303,1629.607178 1849.353882,1631.083496 1827.456665,1628.475342 
	C1794.245605,1624.519531 1769.848999,1607.977661 1753.438110,1579.202271 
	C1738.273193,1552.611572 1732.051270,1523.546143 1731.826904,1493.348145 
	C1731.361694,1430.703613 1731.694702,1368.053101 1731.664307,1305.405029 
	C1731.662598,1301.911621 1731.343262,1298.418457 1731.166504,1294.820557 
	C1718.360352,1294.820557 1706.833008,1294.820557 1694.313599,1294.820557 
	C1694.313599,1325.206421 1694.313599,1355.103027 1694.313599,1386.999878 
M528.919189,1458.676758 
	C520.046509,1459.698242 511.180328,1461.529663 502.300049,1461.600464 
	C464.639191,1461.901123 426.974182,1461.678833 389.310669,1461.648193 
	C386.388580,1461.645752 383.466492,1461.647949 380.241455,1461.647949 
	C380.241455,1474.625977 380.241455,1486.763306 380.241455,1499.566284 
	C384.126312,1499.566284 387.427643,1499.566162 390.728973,1499.566162 
	C415.727386,1499.566162 440.725922,1499.517822 465.724060,1499.601440 
	C471.708282,1499.621460 477.732361,1499.722534 483.666565,1500.406860 
	C500.494080,1502.347412 515.103821,1508.562622 524.915039,1523.253296 
	C528.602356,1528.774292 532.771729,1534.084351 535.662659,1540.007324 
	C548.610474,1566.534668 561.299194,1593.190918 573.833191,1619.916992 
	C581.000427,1635.199463 587.691711,1650.705078 594.492981,1665.877441 
	C608.113342,1665.877441 620.965759,1665.877441 634.611450,1665.877441 
	C633.773315,1663.754517 633.249634,1662.294312 632.629211,1660.876465 
	C624.374390,1642.015869 616.444275,1623.003784 607.760193,1604.342651 
	C595.287781,1577.540405 582.601257,1550.825073 569.307800,1524.424194 
	C564.025452,1513.933472 556.875977,1504.382935 550.591980,1494.428711 
	C551.442749,1493.799683 551.921204,1493.215210 552.520935,1493.035522 
	C578.234985,1485.335571 595.659912,1468.164429 605.151855,1443.771973 
	C616.596069,1414.362793 616.005798,1384.076660 606.761230,1354.085815 
	C600.691162,1334.393677 587.943237,1320.092163 569.635132,1310.509033 
	C548.870667,1299.640015 526.422852,1295.072876 503.468933,1294.564575 
	C464.157379,1293.694092 424.812622,1294.319580 385.481812,1294.341553 
	C383.840240,1294.342407 382.198792,1294.592163 380.319031,1294.745483 
	C380.319031,1307.078369 380.319031,1319.187256 380.319031,1331.679443 
	C384.298065,1331.679443 387.615845,1331.679321 390.933624,1331.679565 
	C426.931305,1331.681641 462.929047,1331.657837 498.926697,1331.699097 
	C512.938049,1331.715088 526.695435,1333.480347 540.001587,1338.107544 
	C558.830322,1344.655273 571.052246,1357.305786 573.914856,1377.260620 
	C575.502686,1388.328857 576.427917,1399.815063 575.308167,1410.875610 
	C573.492615,1428.810181 566.045471,1444.246216 548.452515,1452.300903 
	C542.767944,1454.903564 536.563904,1456.371460 528.919189,1458.676758 
M1316.335449,1447.000122 
	C1316.335449,1396.454590 1316.335449,1345.908936 1316.335449,1294.856567 
	C1303.703125,1294.856567 1292.214600,1294.856567 1280.192993,1294.856567 
	C1280.192993,1418.605469 1280.192993,1542.038574 1280.192993,1665.775269 
	C1371.584717,1665.775269 1462.667603,1665.775269 1553.621948,1665.775269 
	C1553.621948,1653.443115 1553.621948,1641.674438 1553.621948,1629.304688 
	C1474.374634,1629.304688 1395.839478,1629.304688 1316.335449,1629.304688 
	C1316.335449,1568.784058 1316.335449,1508.892090 1316.335449,1447.000122 
M920.999878,1331.693848 
	C977.224792,1331.693848 1033.449707,1331.693848 1089.856201,1331.693848 
	C1089.856201,1318.894775 1089.856201,1307.004150 1089.856201,1294.713867 
	C1003.775757,1294.713867 918.212585,1294.713867 832.338074,1294.713867 
	C832.338074,1307.194092 832.338074,1319.267334 832.338074,1331.693848 
	C861.698608,1331.693848 890.349243,1331.693848 920.999878,1331.693848 
M2668.340820,1320.647217 
	C2668.340820,1324.158325 2668.340820,1327.669312 2668.340820,1330.928467 
	C2755.589600,1330.928467 2841.369141,1330.928467 2926.914795,1330.928467 
	C2926.914795,1318.382080 2926.914795,1306.580078 2926.914795,1295.088867 
	C2840.381836,1295.088867 2754.601807,1295.088867 2668.340820,1295.088867 
	C2668.340820,1303.466187 2668.340820,1311.105347 2668.340820,1320.647217 
M1095.665771,1647.022461 
	C1095.665771,1641.461548 1095.665771,1635.900513 1095.665771,1630.195801 
	C1007.146729,1630.195801 919.726929,1630.195801 832.342041,1630.195801 
	C832.342041,1642.492310 832.342041,1654.254395 832.342041,1665.582764 
	C920.412415,1665.582764 1007.803772,1665.582764 1095.665771,1665.582764 
	C1095.665771,1659.552002 1095.665771,1654.262329 1095.665771,1647.022461 
M2835.000000,1629.671509 
	C2780.059814,1629.783569 2725.119873,1629.894775 2670.179688,1630.026978 
	C2669.906982,1630.027588 2669.601562,1630.281372 2669.370850,1630.484497 
	C2669.125244,1630.700806 2668.950684,1630.997925 2668.942627,1631.008057 
	C2668.942627,1642.772949 2668.942627,1654.279297 2668.942627,1665.753174 
	C2756.962402,1665.753174 2844.379395,1665.753174 2931.606934,1665.753174 
	C2931.606934,1653.403564 2931.606934,1641.639648 2931.606934,1629.671509 
	C2899.585938,1629.671509 2868.292969,1629.671509 2835.000000,1629.671509 
M895.001343,1461.648438 
	C874.118530,1461.648438 853.235779,1461.648438 832.344482,1461.648438 
	C832.344482,1474.788574 832.344482,1486.892456 832.344482,1499.023682 
	C908.528931,1499.023682 984.008179,1499.023682 1059.554565,1499.023682 
	C1059.554565,1486.356934 1059.554565,1474.244873 1059.554565,1461.648438 
	C1004.875427,1461.648438 950.938416,1461.648438 895.001343,1461.648438 
M2814.999756,1499.566284 
	C2842.195312,1499.566284 2869.391113,1499.566284 2897.019531,1499.566284 
	C2897.315674,1496.502686 2897.649902,1494.590332 2897.660156,1492.676147 
	C2897.714111,1482.731445 2897.685303,1472.786377 2897.685303,1463.033569 
	C2887.234375,1460.904663 2676.070068,1461.212891 2668.856934,1463.198608 
	C2668.856934,1475.049561 2668.856934,1486.901001 2668.856934,1499.566284 
	C2717.258789,1499.566284 2765.129150,1499.566284 2814.999756,1499.566284 
M2374.067871,1835.301270 
	C2388.200928,1826.917725 2394.981934,1814.721313 2394.473633,1798.090332 
	C2393.895264,1779.171875 2381.988281,1764.191284 2363.635254,1760.405396 
	C2344.666992,1756.492432 2325.165527,1766.207397 2318.111328,1782.733643 
	C2309.776367,1802.261597 2318.084229,1824.711914 2330.958740,1832.618530 
	C2344.452393,1840.905151 2358.202637,1842.172485 2374.067871,1835.301270 
M2214.564209,1836.586670 
	C2222.769531,1840.064087 2231.308594,1840.926514 2239.913818,1838.872314 
	C2261.325684,1833.760864 2272.969727,1815.952759 2270.268311,1792.923828 
	C2268.041748,1773.944580 2252.087158,1759.871948 2231.533936,1759.732422 
	C2208.212891,1759.574097 2190.645508,1774.777954 2190.615234,1800.268921 
	C2190.596680,1816.008301 2197.694336,1829.156982 2214.564209,1836.586670 
M1869.183350,1838.346313 
	C1874.995972,1838.346313 1880.808594,1838.346313 1887.787598,1838.346313 
	C1881.379517,1827.478638 1875.867798,1818.131104 1870.169556,1808.467163 
	C1872.598022,1806.695801 1874.865723,1805.324707 1876.800293,1803.583740 
	C1887.926636,1793.571655 1889.595215,1770.309204 1869.671753,1763.082520 
	C1856.329224,1758.243042 1842.431152,1760.624756 1828.557373,1760.354858 
	C1828.557373,1787.036621 1828.557373,1812.238403 1828.557373,1837.682373 
	C1834.284546,1837.682373 1839.727783,1837.682373 1845.847046,1837.682373 
	C1845.847046,1828.098389 1845.847046,1819.209839 1845.847046,1810.627075 
	C1850.456421,1808.730591 1851.747803,1811.574463 1853.324463,1814.210571 
	C1858.066162,1822.137939 1862.906372,1830.006470 1869.183350,1838.346313 
M2493.198975,1823.783569 
	C2486.196289,1815.912720 2479.193848,1808.041992 2472.015625,1799.973755 
	C2483.088623,1786.967407 2493.706299,1774.495605 2504.848145,1761.408447 
	C2491.096191,1758.201416 2480.747314,1760.069946 2473.572266,1771.713501 
	C2471.159912,1775.628418 2467.805908,1778.987305 2464.710205,1782.446167 
	C2463.275879,1784.048828 2461.429443,1785.282349 2458.299805,1787.923950 
	C2458.299805,1777.717651 2458.299805,1769.250977 2458.299805,1760.608398 
	C2452.345215,1760.608398 2447.410400,1760.608398 2442.277100,1760.608398 
	C2442.277100,1786.660889 2442.277100,1812.400879 2442.277100,1837.981445 
	C2447.840332,1837.981445 2452.748047,1837.981445 2458.837158,1837.981445 
	C2458.837158,1829.677490 2458.837158,1821.713257 2458.837158,1813.749023 
	C2466.493896,1819.947021 2472.155029,1826.759521 2478.130371,1833.284424 
	C2480.034180,1835.363159 2482.641602,1837.829834 2485.153809,1838.114258 
	C2491.314453,1838.811890 2497.607422,1838.342407 2505.514160,1838.342407 
	C2500.927490,1832.899292 2497.536133,1828.874634 2493.198975,1823.783569 
M1194.073364,1790.501465 
	C1190.440674,1780.571777 1186.807983,1770.642090 1183.174072,1760.709229 
	C1177.177979,1760.709229 1171.606567,1760.709229 1165.293335,1760.709229 
	C1156.170776,1786.258423 1147.093994,1811.680054 1137.726807,1837.914551 
	C1144.535767,1837.914551 1150.043213,1837.914551 1155.864258,1837.914551 
	C1157.668335,1833.376099 1159.458984,1828.871826 1161.116211,1824.703125 
	C1170.315308,1824.703125 1178.586182,1824.703125 1187.366943,1824.703125 
	C1189.296387,1829.275269 1191.183105,1833.745972 1192.853516,1837.704102 
	C1199.004639,1837.704102 1204.477295,1837.704102 1210.823853,1837.704102 
	C1205.151245,1821.897583 1199.791748,1806.963745 1194.073364,1790.501465 
M792.066406,1775.668579 
	C793.230469,1774.762695 795.294617,1773.949219 795.398804,1772.934570 
	C795.795227,1769.075195 795.558716,1765.150757 795.558716,1760.791626 
	C779.956360,1760.791626 765.166504,1760.791626 750.333496,1760.791626 
	C750.333496,1786.812378 750.333496,1812.525757 750.333496,1837.648193 
	C765.812378,1837.648193 780.579895,1837.648193 795.243591,1837.648193 
	C795.243591,1833.032349 795.243591,1829.159058 795.243591,1824.055908 
	C785.439941,1824.055908 776.049377,1824.055908 767.002808,1824.055908 
	C767.002808,1817.618896 767.002808,1812.429810 767.002808,1806.306519 
	C775.745422,1806.306519 783.894287,1806.306519 791.718750,1806.306519 
	C791.718750,1800.853271 791.718750,1796.382202 791.718750,1791.277588 
	C783.210510,1791.277588 775.347900,1791.277588 766.946045,1791.277588 
	C766.946045,1785.884399 766.946045,1781.164185 766.946045,1775.687744 
	C775.018799,1775.687744 782.625366,1775.687744 792.066406,1775.668579 
M1090.605957,1760.288330 
	C1087.287598,1760.288330 1083.969238,1760.288330 1080.458008,1760.288330 
	C1072.806641,1777.207886 1068.824707,1795.353638 1059.663818,1814.025269 
	C1052.542969,1794.534180 1046.259888,1777.336060 1040.326172,1761.094238 
	C1033.476440,1761.094238 1028.048706,1761.094238 1021.816833,1761.094238 
	C1031.750977,1787.457764 1041.310181,1812.826782 1050.775513,1837.946045 
	C1057.386963,1837.946045 1063.297852,1837.946045 1069.480469,1837.946045 
	C1079.087891,1812.289429 1088.587524,1786.920776 1098.293457,1761.001099 
	C1095.529175,1760.673706 1093.908691,1760.481689 1090.605957,1760.288330 
M1623.550659,1794.002686 
	C1629.117676,1808.799194 1634.684814,1823.595703 1640.121582,1838.045532 
	C1646.692871,1838.045532 1652.277710,1838.045532 1658.436279,1838.045532 
	C1667.823975,1812.386230 1678.142578,1787.195312 1687.020996,1760.716797 
	C1679.897461,1760.716797 1674.374878,1760.716797 1669.074341,1760.716797 
	C1662.628662,1778.358276 1656.351685,1795.538086 1650.074585,1812.717896 
	C1649.387695,1812.630981 1648.700806,1812.544067 1648.013916,1812.457153 
	C1641.750366,1795.143188 1635.486816,1777.829346 1629.409668,1761.030518 
	C1623.084351,1761.030518 1617.672119,1761.030518 1611.064941,1761.030518 
	C1615.303467,1772.240356 1619.142944,1782.394653 1623.550659,1794.002686 
M1371.206787,1760.276611 
	C1366.367554,1760.318726 1361.528320,1760.360840 1356.596436,1760.403687 
	C1356.596436,1787.072876 1356.596436,1812.318481 1356.596436,1837.975952 
	C1371.782715,1837.975952 1386.658691,1837.975952 1401.665527,1837.975952 
	C1401.665527,1833.300903 1401.665527,1828.910767 1401.665527,1823.877686 
	C1392.071167,1823.877686 1383.199341,1823.877686 1374.317749,1823.877686 
	C1374.317749,1817.730103 1374.317749,1812.262085 1374.317749,1805.917480 
	C1383.056274,1805.917480 1391.202026,1805.917480 1399.342651,1805.917480 
	C1399.342651,1800.773560 1399.342651,1796.525635 1399.342651,1791.468262 
	C1390.788696,1791.468262 1382.602539,1791.468262 1374.317871,1791.468262 
	C1374.317871,1785.829468 1374.317871,1781.015503 1374.317871,1775.617065 
	C1383.777222,1775.617065 1392.658569,1775.617065 1401.739502,1775.617065 
	C1401.739502,1770.203369 1401.739502,1765.402832 1401.739502,1760.276611 
	C1391.776978,1760.276611 1382.461304,1760.276611 1371.206787,1760.276611 
M1520.276611,1773.281006 
	C1520.276611,1794.783691 1520.276611,1816.286499 1520.276611,1837.889404 
	C1536.258423,1837.889404 1551.112061,1837.889404 1565.866089,1837.889404 
	C1565.866089,1833.158203 1565.866089,1828.934326 1565.866089,1823.777344 
	C1556.208618,1823.777344 1547.076050,1823.777344 1538.147217,1823.777344 
	C1538.147217,1817.564697 1538.147217,1812.297974 1538.147217,1806.247070 
	C1546.757568,1806.247070 1554.958984,1806.247070 1563.077393,1806.247070 
	C1563.077393,1800.985840 1563.077393,1796.532837 1563.077393,1791.586182 
	C1554.502319,1791.586182 1546.561401,1791.586182 1538.174805,1791.586182 
	C1538.174805,1786.220703 1538.174805,1781.379272 1538.174805,1775.528564 
	C1547.648071,1775.528564 1556.741089,1775.528564 1565.917725,1775.528564 
	C1565.917725,1769.946167 1565.917725,1765.379028 1565.917725,1760.917480 
	C1550.618164,1760.917480 1535.806274,1760.917480 1520.276611,1760.917480 
	C1520.276611,1764.823486 1520.276611,1768.094604 1520.276611,1773.281006 
M932.276733,1828.485596 
	C932.276733,1831.462891 932.276733,1834.440186 932.276733,1837.796631 
	C947.894470,1837.796631 963.005554,1837.796631 977.772095,1837.796631 
	C977.772095,1832.981689 977.772095,1828.771484 977.772095,1823.969238 
	C968.260071,1823.969238 959.366882,1823.969238 950.220459,1823.969238 
	C950.220459,1817.849121 950.220459,1812.346802 950.220459,1806.028076 
	C958.897339,1806.028076 967.082520,1806.028076 975.404541,1806.028076 
	C975.404541,1800.934937 975.404541,1796.666992 975.404541,1791.611328 
	C966.902588,1791.611328 958.701111,1791.611328 950.254883,1791.611328 
	C950.254883,1785.990112 950.254883,1781.163330 950.254883,1775.758301 
	C959.663269,1775.758301 968.561584,1775.758301 977.826172,1775.758301 
	C977.826172,1770.322754 977.826172,1765.486328 977.826172,1761.010864 
	C962.422424,1761.010864 947.597778,1761.010864 932.276733,1761.010864 
	C932.276733,1783.362305 932.276733,1804.983643 932.276733,1828.485596 
M1731.953735,1771.347290 
	C1731.953735,1793.496948 1731.953735,1815.646484 1731.953735,1838.022583 
	C1747.861450,1838.022583 1762.447510,1838.022583 1777.163330,1838.022583 
	C1777.163330,1833.475830 1777.163330,1829.304321 1777.163330,1824.268677 
	C1767.440918,1824.268677 1758.231689,1824.268677 1749.117188,1824.268677 
	C1749.117188,1817.925659 1749.117188,1812.482178 1749.117188,1806.400635 
	C1757.719482,1806.400635 1765.613647,1806.400635 1773.929688,1806.400635 
	C1773.929688,1801.277222 1773.929688,1796.808838 1773.929688,1791.320557 
	C1765.479736,1791.320557 1757.333862,1791.320557 1748.824341,1791.320557 
	C1748.824341,1785.779785 1748.824341,1781.240479 1748.824341,1775.485352 
	C1758.373413,1775.485352 1767.838989,1775.485352 1777.704590,1775.485352 
	C1777.704590,1771.959106 1777.804688,1769.638550 1777.675537,1767.330811 
	C1777.552856,1765.138550 1777.190308,1762.959595 1776.955078,1760.960815 
	C1761.770752,1760.960815 1747.297119,1760.960815 1732.477051,1760.960815 
	C1732.276001,1764.215820 1732.114868,1766.825073 1731.953735,1771.347290 
M1938.927734,1786.369507 
	C1940.600464,1789.613281 1941.990112,1793.045410 1943.999023,1796.065674 
	C1950.100708,1805.239624 1952.932373,1815.104248 1951.692871,1826.165283 
	C1951.260986,1830.019165 1951.624023,1833.961914 1951.624023,1837.823730 
	C1957.688354,1837.823730 1962.819946,1837.823730 1968.384155,1837.823730 
	C1968.384155,1833.328125 1968.676758,1829.356323 1968.325439,1825.442383 
	C1967.496948,1816.211060 1969.549561,1807.873657 1974.167969,1799.785156 
	C1980.073608,1789.442139 1985.305908,1778.712280 1990.738037,1768.102783 
	C1991.870605,1765.890747 1992.609741,1763.477173 1993.741333,1760.624268 
	C1987.213013,1760.624268 1981.639526,1760.624268 1975.585815,1760.624268 
	C1970.767822,1770.645874 1965.984009,1780.596191 1960.429199,1792.150269 
	C1954.835938,1780.709961 1949.945312,1770.706543 1945.033325,1760.659668 
	C1938.869141,1760.659668 1932.971924,1760.659668 1925.712769,1760.659668 
	C1930.156006,1769.349731 1934.175293,1777.210693 1938.927734,1786.369507 
M1290.372925,1833.469971 
	C1290.372925,1814.551514 1290.372925,1795.633179 1290.372925,1775.957275 
	C1296.985718,1775.957275 1303.201904,1775.957275 1309.832764,1775.957275 
	C1309.832764,1770.354248 1309.832764,1765.513794 1309.832764,1760.941895 
	C1291.160522,1760.941895 1273.029175,1760.941895 1254.931641,1760.941895 
	C1254.931641,1766.064453 1254.931641,1770.530884 1254.931641,1775.825684 
	C1261.400879,1775.825684 1267.271240,1775.825684 1273.911865,1775.825684 
	C1273.911865,1797.120850 1273.911865,1817.572021 1273.911865,1838.335693 
	C1278.990234,1838.335693 1283.299805,1838.532837 1287.565796,1838.190308 
	C1288.573608,1838.109253 1289.435547,1836.212891 1290.372925,1833.469971 
M2107.641357,1800.997925 
	C2107.641357,1813.205688 2107.641357,1825.413574 2107.641357,1837.979004 
	C2121.904297,1837.979004 2135.407715,1837.979004 2149.200928,1837.979004 
	C2149.200928,1833.553589 2149.200928,1829.396729 2149.200928,1824.006592 
	C2140.715088,1824.006592 2132.664551,1824.006592 2124.201660,1824.006592 
	C2124.201660,1802.213257 2124.201660,1781.657227 2124.201660,1760.767944 
	C2118.552246,1760.767944 2113.403320,1760.767944 2107.641357,1760.767944 
	C2107.641357,1773.808228 2107.641357,1786.403809 2107.641357,1800.997925 
M845.763184,1762.622314 
	C845.763184,1787.754761 845.763184,1812.887207 845.763184,1837.779541 
	C860.273865,1837.779541 873.740479,1837.779541 886.953003,1837.779541 
	C886.953003,1833.061646 886.953003,1828.945312 886.953003,1823.989990 
	C878.400635,1823.989990 870.570251,1823.989990 861.946167,1823.989990 
	C861.946167,1802.327026 861.946167,1781.536621 861.946167,1760.098145 
	C856.182007,1760.419922 851.260071,1760.694580 845.763184,1762.622314 
M2557.177734,1819.611450 
	C2549.289062,1821.717896 2546.687256,1825.652710 2548.441895,1832.822388 
	C2549.707031,1837.992310 2555.088867,1840.915527 2560.830322,1839.551758 
	C2565.603760,1838.417969 2568.405518,1834.659546 2568.377930,1829.426880 
	C2568.347412,1823.625488 2566.228027,1821.493042 2557.177734,1819.611450 
z"/>
<path fill="#FBFBFB" opacity="1.000000" stroke="none" 
	d="
M2334.281738,1436.136108 
	C2359.925293,1400.479614 2385.101074,1365.366089 2410.257324,1330.238770 
	C2417.610596,1319.971069 2424.980957,1309.714355 2432.191162,1299.346558 
	C2434.660156,1295.796387 2437.418701,1294.064331 2442.040039,1294.197510 
	C2454.538086,1294.557983 2467.053467,1294.320923 2482.165039,1294.320923 
	C2436.705811,1357.680908 2392.654541,1419.078857 2348.569092,1480.524170 
	C2392.669189,1542.129272 2436.542969,1603.418579 2481.584229,1666.338379 
	C2466.044189,1666.338379 2452.198486,1666.571655 2438.376221,1666.107300 
	C2436.091064,1666.030396 2433.340820,1663.310425 2431.762451,1661.121826 
	C2402.796875,1620.957275 2373.988037,1580.679810 2345.118896,1540.445679 
	C2338.742676,1531.559448 2332.263428,1522.747192 2325.266357,1513.123169 
	C2316.661621,1525.010742 2308.491455,1536.173340 2300.451172,1547.428833 
	C2273.606689,1585.008911 2246.738281,1622.572388 2220.083984,1660.286987 
	C2216.845947,1664.868774 2213.371826,1666.687256 2207.754150,1666.484009 
	C2195.809570,1666.051758 2183.838135,1666.352173 2169.708496,1666.352173 
	C2191.993652,1634.004883 2214.433350,1603.866821 2236.217773,1573.277954 
	C2258.177734,1542.442383 2280.400879,1511.794434 2302.898193,1480.522705 
	C2258.515869,1418.916748 2214.331055,1357.585327 2169.208008,1294.951660 
	C2185.547607,1294.951660 2200.019287,1294.951660 2215.310791,1294.951660 
	C2251.389648,1345.364868 2287.906006,1396.389771 2325.146729,1448.426636 
	C2328.194824,1444.290039 2331.000977,1440.482056 2334.281738,1436.136108 
z"/>
<path fill="#FBFBFB" opacity="1.000000" stroke="none" 
	d="
M1694.313599,1385.999756 
	C1694.313599,1355.103027 1694.313599,1325.206421 1694.313599,1294.820557 
	C1706.833008,1294.820557 1718.360352,1294.820557 1731.166504,1294.820557 
	C1731.343262,1298.418457 1731.662598,1301.911621 1731.664307,1305.405029 
	C1731.694702,1368.053101 1731.361694,1430.703613 1731.826904,1493.348145 
	C1732.051270,1523.546143 1738.273193,1552.611572 1753.438110,1579.202271 
	C1769.848999,1607.977661 1794.245605,1624.519531 1827.456665,1628.475342 
	C1849.353882,1631.083496 1870.560303,1629.607178 1890.762817,1620.681274 
	C1917.234497,1608.985352 1933.635742,1587.741333 1943.834229,1561.442993 
	C1951.055420,1542.822266 1955.584595,1523.463501 1956.311157,1503.376709 
	C1956.802979,1489.783691 1957.541992,1476.188354 1957.580688,1462.592407 
	C1957.729736,1410.274902 1957.641235,1357.956909 1957.641235,1305.639038 
	C1957.641235,1302.035278 1957.641235,1298.431519 1957.641235,1294.576538 
	C1970.173706,1294.576538 1981.794800,1294.576538 1994.358887,1294.576538 
	C1994.358887,1298.081909 1994.359009,1301.344360 1994.359009,1304.606812 
	C1994.357788,1366.588379 1995.006714,1428.579346 1994.126709,1490.548340 
	C1993.539429,1531.897095 1984.685913,1571.604736 1961.810791,1606.942505 
	C1936.357666,1646.262939 1899.536133,1665.424316 1853.016724,1666.296021 
	C1836.748901,1666.600952 1820.598633,1666.287231 1804.467651,1662.555786 
	C1770.448853,1654.686401 1745.248291,1634.998169 1726.263794,1606.582886 
	C1710.266357,1582.639038 1702.638916,1555.537354 1697.845825,1527.513916 
	C1694.986938,1510.798706 1694.071533,1493.948242 1694.233521,1476.972656 
	C1694.519775,1446.984131 1694.313599,1416.991089 1694.313599,1385.999756 
z"/>
<path fill="#FBFBFB" opacity="1.000000" stroke="none" 
	d="
M529.758301,1458.517578 
	C536.563904,1456.371460 542.767944,1454.903564 548.452515,1452.300903 
	C566.045471,1444.246216 573.492615,1428.810181 575.308167,1410.875610 
	C576.427917,1399.815063 575.502686,1388.328857 573.914856,1377.260620 
	C571.052246,1357.305786 558.830322,1344.655273 540.001587,1338.107544 
	C526.695435,1333.480347 512.938049,1331.715088 498.926697,1331.699097 
	C462.929047,1331.657837 426.931305,1331.681641 390.933624,1331.679565 
	C387.615845,1331.679321 384.298065,1331.679443 380.319031,1331.679443 
	C380.319031,1319.187256 380.319031,1307.078369 380.319031,1294.745483 
	C382.198792,1294.592163 383.840240,1294.342407 385.481812,1294.341553 
	C424.812622,1294.319580 464.157379,1293.694092 503.468933,1294.564575 
	C526.422852,1295.072876 548.870667,1299.640015 569.635132,1310.509033 
	C587.943237,1320.092163 600.691162,1334.393677 606.761230,1354.085815 
	C616.005798,1384.076660 616.596069,1414.362793 605.151855,1443.771973 
	C595.659912,1468.164429 578.234985,1485.335571 552.520935,1493.035522 
	C551.921204,1493.215210 551.442749,1493.799683 550.591980,1494.428711 
	C556.875977,1504.382935 564.025452,1513.933472 569.307800,1524.424194 
	C582.601257,1550.825073 595.287781,1577.540405 607.760193,1604.342651 
	C616.444275,1623.003784 624.374390,1642.015869 632.629211,1660.876465 
	C633.249634,1662.294312 633.773315,1663.754517 634.611450,1665.877441 
	C620.965759,1665.877441 608.113342,1665.877441 594.492981,1665.877441 
	C587.691711,1650.705078 581.000427,1635.199463 573.833191,1619.916992 
	C561.299194,1593.190918 548.610474,1566.534668 535.662659,1540.007324 
	C532.771729,1534.084351 528.602356,1528.774292 524.915039,1523.253296 
	C515.103821,1508.562622 500.494080,1502.347412 483.666565,1500.406860 
	C477.732361,1499.722534 471.708282,1499.621460 465.724060,1499.601440 
	C440.725922,1499.517822 415.727386,1499.566162 390.728973,1499.566162 
	C387.427643,1499.566162 384.126312,1499.566284 380.241455,1499.566284 
	C380.241455,1486.763306 380.241455,1474.625977 380.241455,1461.647949 
	C383.466492,1461.647949 386.388580,1461.645752 389.310669,1461.648193 
	C426.974182,1461.678833 464.639191,1461.901123 502.300049,1461.600464 
	C511.180328,1461.529663 520.046509,1459.698242 529.758301,1458.517578 
z"/>
<path fill="#FFFFFF" opacity="1.000000" stroke="none" 
	d="
M1316.335449,1448.000244 
	C1316.335449,1508.892090 1316.335449,1568.784058 1316.335449,1629.304688 
	C1395.839478,1629.304688 1474.374634,1629.304688 1553.621948,1629.304688 
	C1553.621948,1641.674438 1553.621948,1653.443115 1553.621948,1665.775269 
	C1462.667603,1665.775269 1371.584717,1665.775269 1280.192993,1665.775269 
	C1280.192993,1542.038574 1280.192993,1418.605469 1280.192993,1294.856567 
	C1292.214600,1294.856567 1303.703125,1294.856567 1316.335449,1294.856567 
	C1316.335449,1345.908936 1316.335449,1396.454590 1316.335449,1448.000244 
z"/>
<path fill="#F8F8F8" opacity="1.000000" stroke="none" 
	d="
M919.999878,1331.693848 
	C890.349243,1331.693848 861.698608,1331.693848 832.338074,1331.693848 
	C832.338074,1319.267334 832.338074,1307.194092 832.338074,1294.713867 
	C918.212585,1294.713867 1003.775757,1294.713867 1089.856201,1294.713867 
	C1089.856201,1307.004150 1089.856201,1318.894775 1089.856201,1331.693848 
	C1033.449707,1331.693848 977.224792,1331.693848 919.999878,1331.693848 
z"/>
<path fill="#FFFFFF" opacity="1.000000" stroke="none" 
	d="
M2668.340820,1319.695923 
	C2668.340820,1311.105347 2668.340820,1303.466187 2668.340820,1295.088867 
	C2754.601807,1295.088867 2840.381836,1295.088867 2926.914795,1295.088867 
	C2926.914795,1306.580078 2926.914795,1318.382080 2926.914795,1330.928467 
	C2841.369141,1330.928467 2755.589600,1330.928467 2668.340820,1330.928467 
	C2668.340820,1327.669312 2668.340820,1324.158325 2668.340820,1319.695923 
z"/>
<path fill="#FFFFFF" opacity="1.000000" stroke="none" 
	d="
M1095.665771,1647.997559 
	C1095.665771,1654.262329 1095.665771,1659.552002 1095.665771,1665.582764 
	C1007.803772,1665.582764 920.412415,1665.582764 832.342041,1665.582764 
	C832.342041,1654.254395 832.342041,1642.492310 832.342041,1630.195801 
	C919.726929,1630.195801 1007.146729,1630.195801 1095.665771,1630.195801 
	C1095.665771,1635.900513 1095.665771,1641.461548 1095.665771,1647.997559 
z"/>
<path fill="#FFFFFF" opacity="1.000000" stroke="none" 
	d="
M2836.000000,1629.671509 
	C2868.292969,1629.671509 2899.585938,1629.671509 2931.606934,1629.671509 
	C2931.606934,1641.639648 2931.606934,1653.403564 2931.606934,1665.753174 
	C2844.379395,1665.753174 2756.962402,1665.753174 2668.942627,1665.753174 
	C2668.942627,1654.279297 2668.942627,1642.772949 2668.942627,1631.008057 
	C2668.950684,1630.997925 2669.125244,1630.700806 2669.370850,1630.484497 
	C2669.601562,1630.281372 2669.906982,1630.027588 2670.179688,1630.026978 
	C2725.119873,1629.894775 2780.059814,1629.783569 2836.000000,1629.671509 
z"/>
<path fill="#FBFBFB" opacity="1.000000" stroke="none" 
	d="
M896.001343,1461.648438 
	C950.938416,1461.648438 1004.875427,1461.648438 1059.554565,1461.648438 
	C1059.554565,1474.244873 1059.554565,1486.356934 1059.554565,1499.023682 
	C984.008179,1499.023682 908.528931,1499.023682 832.344482,1499.023682 
	C832.344482,1486.892456 832.344482,1474.788574 832.344482,1461.648438 
	C853.235779,1461.648438 874.118530,1461.648438 896.001343,1461.648438 
z"/>
<path fill="#FBFBFB" opacity="1.000000" stroke="none" 
	d="
M2813.999512,1499.566284 
	C2765.129150,1499.566284 2717.258789,1499.566284 2668.856934,1499.566284 
	C2668.856934,1486.901001 2668.856934,1475.049561 2668.856934,1463.198608 
	C2676.070068,1461.212891 2887.234375,1460.904663 2897.685303,1463.033569 
	C2897.685303,1472.786377 2897.714111,1482.731445 2897.660156,1492.676147 
	C2897.649902,1494.590332 2897.315674,1496.502686 2897.019531,1499.566284 
	C2869.391113,1499.566284 2842.195312,1499.566284 2813.999512,1499.566284 
z"/>
<path fill="#F6F6F6" opacity="1.000000" stroke="none" 
	d="
M2373.386719,1835.633057 
	C2358.202637,1842.172485 2344.452393,1840.905151 2330.958740,1832.618530 
	C2318.084229,1824.711914 2309.776367,1802.261597 2318.111328,1782.733643 
	C2325.165527,1766.207397 2344.666992,1756.492432 2363.635254,1760.405396 
	C2381.988281,1764.191284 2393.895264,1779.171875 2394.473633,1798.090332 
	C2394.981934,1814.721313 2388.200928,1826.917725 2373.386719,1835.633057 
M2337.171387,1815.545166 
	C2346.616943,1826.917358 2361.203125,1826.550781 2370.456055,1817.649780 
	C2377.566162,1810.810425 2379.208740,1796.281250 2374.251709,1787.244629 
	C2369.752686,1779.043213 2361.425049,1774.742188 2351.886475,1775.694214 
	C2342.700439,1776.610840 2336.533447,1782.049072 2333.594238,1791.420166 
	C2331.059082,1799.503174 2332.251221,1807.026611 2337.171387,1815.545166 
z"/>
<path fill="#F6F6F6" opacity="1.000000" stroke="none" 
	d="
M2213.815918,1836.395142 
	C2197.694336,1829.156982 2190.596680,1816.008301 2190.615234,1800.268921 
	C2190.645508,1774.777954 2208.212891,1759.574097 2231.533936,1759.732422 
	C2252.087158,1759.871948 2268.041748,1773.944580 2270.268311,1792.923828 
	C2272.969727,1815.952759 2261.325684,1833.760864 2239.913818,1838.872314 
	C2231.308594,1840.926514 2222.769531,1840.064087 2213.815918,1836.395142 
M2216.326660,1818.930786 
	C2225.319336,1825.456177 2234.417725,1826.220947 2243.846680,1819.722778 
	C2251.875000,1814.189941 2257.384277,1798.458374 2249.388672,1785.859619 
	C2244.203613,1777.690186 2236.489746,1774.822388 2227.254150,1775.798706 
	C2218.448730,1776.729370 2212.790527,1782.043213 2209.963623,1790.137695 
	C2206.426758,1800.264160 2208.074219,1809.636230 2216.326660,1818.930786 
z"/>
<path fill="#F4F4F4" opacity="1.000000" stroke="none" 
	d="
M1868.445679,1838.122070 
	C1862.906372,1830.006470 1858.066162,1822.137939 1853.324463,1814.210571 
	C1851.747803,1811.574463 1850.456421,1808.730591 1845.847046,1810.627075 
	C1845.847046,1819.209839 1845.847046,1828.098389 1845.847046,1837.682373 
	C1839.727783,1837.682373 1834.284546,1837.682373 1828.557373,1837.682373 
	C1828.557373,1812.238403 1828.557373,1787.036621 1828.557373,1760.354858 
	C1842.431152,1760.624756 1856.329224,1758.243042 1869.671753,1763.082520 
	C1889.595215,1770.309204 1887.926636,1793.571655 1876.800293,1803.583740 
	C1874.865723,1805.324707 1872.598022,1806.695801 1870.169556,1808.467163 
	C1875.867798,1818.131104 1881.379517,1827.478638 1887.787598,1838.346313 
	C1880.808594,1838.346313 1874.995972,1838.346313 1868.445679,1838.122070 
M1845.693848,1786.741455 
	C1845.873291,1789.603638 1846.052856,1792.465698 1846.295776,1796.337646 
	C1851.956421,1795.420288 1856.875854,1795.098755 1861.486572,1793.734009 
	C1865.613037,1792.512817 1867.725098,1788.953857 1867.576660,1784.544312 
	C1867.421753,1779.936157 1864.518921,1777.097290 1860.326416,1776.369751 
	C1855.881470,1775.598389 1851.267456,1775.801880 1846.139038,1775.550781 
	C1845.969116,1779.102051 1845.831421,1781.977417 1845.693848,1786.741455 
z"/>
<path fill="#F8F8F8" opacity="1.000000" stroke="none" 
	d="
M2493.671875,1824.316772 
	C2497.536133,1828.874634 2500.927490,1832.899292 2505.514160,1838.342407 
	C2497.607422,1838.342407 2491.314453,1838.811890 2485.153809,1838.114258 
	C2482.641602,1837.829834 2480.034180,1835.363159 2478.130371,1833.284424 
	C2472.155029,1826.759521 2466.493896,1819.947021 2458.837158,1813.749023 
	C2458.837158,1821.713257 2458.837158,1829.677490 2458.837158,1837.981445 
	C2452.748047,1837.981445 2447.840332,1837.981445 2442.277100,1837.981445 
	C2442.277100,1812.400879 2442.277100,1786.660889 2442.277100,1760.608398 
	C2447.410400,1760.608398 2452.345215,1760.608398 2458.299805,1760.608398 
	C2458.299805,1769.250977 2458.299805,1777.717651 2458.299805,1787.923950 
	C2461.429443,1785.282349 2463.275879,1784.048828 2464.710205,1782.446167 
	C2467.805908,1778.987305 2471.159912,1775.628418 2473.572266,1771.713501 
	C2480.747314,1760.069946 2491.096191,1758.201416 2504.848145,1761.408447 
	C2493.706299,1774.495605 2483.088623,1786.967407 2472.015625,1799.973755 
	C2479.193848,1808.041992 2486.196289,1815.912720 2493.671875,1824.316772 
z"/>
<path fill="#F8F8F8" opacity="1.000000" stroke="none" 
	d="
M1194.252930,1791.265625 
	C1199.791748,1806.963745 1205.151245,1821.897583 1210.823853,1837.704102 
	C1204.477295,1837.704102 1199.004639,1837.704102 1192.853516,1837.704102 
	C1191.183105,1833.745972 1189.296387,1829.275269 1187.366943,1824.703125 
	C1178.586182,1824.703125 1170.315308,1824.703125 1161.116211,1824.703125 
	C1159.458984,1828.871826 1157.668335,1833.376099 1155.864258,1837.914551 
	C1150.043213,1837.914551 1144.535767,1837.914551 1137.726807,1837.914551 
	C1147.093994,1811.680054 1156.170776,1786.258423 1165.293335,1760.709229 
	C1171.606567,1760.709229 1177.177979,1760.709229 1183.174072,1760.709229 
	C1186.807983,1770.642090 1190.440674,1780.571777 1194.252930,1791.265625 
M1173.754639,1789.011230 
	C1171.227905,1795.580688 1168.701172,1802.150269 1165.974609,1809.239136 
	C1171.995972,1809.239136 1176.790649,1809.239136 1182.287354,1809.239136 
	C1179.752441,1801.882324 1177.421997,1795.118896 1173.754639,1789.011230 
z"/>
<path fill="#F8F8F8" opacity="1.000000" stroke="none" 
	d="
M791.149170,1775.678223 
	C782.625366,1775.687744 775.018799,1775.687744 766.946045,1775.687744 
	C766.946045,1781.164185 766.946045,1785.884399 766.946045,1791.277588 
	C775.347900,1791.277588 783.210510,1791.277588 791.718750,1791.277588 
	C791.718750,1796.382202 791.718750,1800.853271 791.718750,1806.306519 
	C783.894287,1806.306519 775.745422,1806.306519 767.002808,1806.306519 
	C767.002808,1812.429810 767.002808,1817.618896 767.002808,1824.055908 
	C776.049377,1824.055908 785.439941,1824.055908 795.243591,1824.055908 
	C795.243591,1829.159058 795.243591,1833.032349 795.243591,1837.648193 
	C780.579895,1837.648193 765.812378,1837.648193 750.333496,1837.648193 
	C750.333496,1812.525757 750.333496,1786.812378 750.333496,1760.791626 
	C765.166504,1760.791626 779.956360,1760.791626 795.558716,1760.791626 
	C795.558716,1765.150757 795.795227,1769.075195 795.398804,1772.934570 
	C795.294617,1773.949219 793.230469,1774.762695 791.149170,1775.678223 
z"/>
<path fill="#F6F6F6" opacity="1.000000" stroke="none" 
	d="
M1091.447021,1760.289062 
	C1093.908691,1760.481689 1095.529175,1760.673706 1098.293457,1761.001099 
	C1088.587524,1786.920776 1079.087891,1812.289429 1069.480469,1837.946045 
	C1063.297852,1837.946045 1057.386963,1837.946045 1050.775513,1837.946045 
	C1041.310181,1812.826782 1031.750977,1787.457764 1021.816833,1761.094238 
	C1028.048706,1761.094238 1033.476440,1761.094238 1040.326172,1761.094238 
	C1046.259888,1777.336060 1052.542969,1794.534180 1059.663818,1814.025269 
	C1068.824707,1795.353638 1072.806641,1777.207886 1080.458008,1760.288330 
	C1083.969238,1760.288330 1087.287598,1760.288330 1091.447021,1760.289062 
z"/>
<path fill="#F4F4F4" opacity="1.000000" stroke="none" 
	d="
M1623.266602,1793.275879 
	C1619.142944,1782.394653 1615.303467,1772.240356 1611.064941,1761.030518 
	C1617.672119,1761.030518 1623.084351,1761.030518 1629.409668,1761.030518 
	C1635.486816,1777.829346 1641.750366,1795.143188 1648.013916,1812.457153 
	C1648.700806,1812.544067 1649.387695,1812.630981 1650.074585,1812.717896 
	C1656.351685,1795.538086 1662.628662,1778.358276 1669.074341,1760.716797 
	C1674.374878,1760.716797 1679.897461,1760.716797 1687.020996,1760.716797 
	C1678.142578,1787.195312 1667.823975,1812.386230 1658.436279,1838.045532 
	C1652.277710,1838.045532 1646.692871,1838.045532 1640.121582,1838.045532 
	C1634.684814,1823.595703 1629.117676,1808.799194 1623.266602,1793.275879 
z"/>
<path fill="#F4F4F4" opacity="1.000000" stroke="none" 
	d="
M1372.176270,1760.276611 
	C1382.461304,1760.276611 1391.776978,1760.276611 1401.739502,1760.276611 
	C1401.739502,1765.402832 1401.739502,1770.203369 1401.739502,1775.617065 
	C1392.658569,1775.617065 1383.777222,1775.617065 1374.317871,1775.617065 
	C1374.317871,1781.015503 1374.317871,1785.829468 1374.317871,1791.468262 
	C1382.602539,1791.468262 1390.788696,1791.468262 1399.342651,1791.468262 
	C1399.342651,1796.525635 1399.342651,1800.773560 1399.342651,1805.917480 
	C1391.202026,1805.917480 1383.056274,1805.917480 1374.317749,1805.917480 
	C1374.317749,1812.262085 1374.317749,1817.730103 1374.317749,1823.877686 
	C1383.199341,1823.877686 1392.071167,1823.877686 1401.665527,1823.877686 
	C1401.665527,1828.910767 1401.665527,1833.300903 1401.665527,1837.975952 
	C1386.658691,1837.975952 1371.782715,1837.975952 1356.596436,1837.975952 
	C1356.596436,1812.318481 1356.596436,1787.072876 1356.596436,1760.403687 
	C1361.528320,1760.360840 1366.367554,1760.318726 1372.176270,1760.276611 
z"/>
<path fill="#F4F4F4" opacity="1.000000" stroke="none" 
	d="
M1520.276611,1772.323364 
	C1520.276611,1768.094604 1520.276611,1764.823486 1520.276611,1760.917480 
	C1535.806274,1760.917480 1550.618164,1760.917480 1565.917725,1760.917480 
	C1565.917725,1765.379028 1565.917725,1769.946167 1565.917725,1775.528564 
	C1556.741089,1775.528564 1547.648071,1775.528564 1538.174805,1775.528564 
	C1538.174805,1781.379272 1538.174805,1786.220703 1538.174805,1791.586182 
	C1546.561401,1791.586182 1554.502319,1791.586182 1563.077393,1791.586182 
	C1563.077393,1796.532837 1563.077393,1800.985840 1563.077393,1806.247070 
	C1554.958984,1806.247070 1546.757568,1806.247070 1538.147217,1806.247070 
	C1538.147217,1812.297974 1538.147217,1817.564697 1538.147217,1823.777344 
	C1547.076050,1823.777344 1556.208618,1823.777344 1565.866089,1823.777344 
	C1565.866089,1828.934326 1565.866089,1833.158203 1565.866089,1837.889404 
	C1551.112061,1837.889404 1536.258423,1837.889404 1520.276611,1837.889404 
	C1520.276611,1816.286499 1520.276611,1794.783691 1520.276611,1772.323364 
z"/>
<path fill="#F4F4F4" opacity="1.000000" stroke="none" 
	d="
M932.276733,1827.545410 
	C932.276733,1804.983643 932.276733,1783.362305 932.276733,1761.010864 
	C947.597778,1761.010864 962.422424,1761.010864 977.826172,1761.010864 
	C977.826172,1765.486328 977.826172,1770.322754 977.826172,1775.758301 
	C968.561584,1775.758301 959.663269,1775.758301 950.254883,1775.758301 
	C950.254883,1781.163330 950.254883,1785.990112 950.254883,1791.611328 
	C958.701111,1791.611328 966.902588,1791.611328 975.404541,1791.611328 
	C975.404541,1796.666992 975.404541,1800.934937 975.404541,1806.028076 
	C967.082520,1806.028076 958.897339,1806.028076 950.220459,1806.028076 
	C950.220459,1812.346802 950.220459,1817.849121 950.220459,1823.969238 
	C959.366882,1823.969238 968.260071,1823.969238 977.772095,1823.969238 
	C977.772095,1828.771484 977.772095,1832.981689 977.772095,1837.796631 
	C963.005554,1837.796631 947.894470,1837.796631 932.276733,1837.796631 
	C932.276733,1834.440186 932.276733,1831.462891 932.276733,1827.545410 
z"/>
<path fill="#F6F6F6" opacity="1.000000" stroke="none" 
	d="
M1731.953735,1770.390869 
	C1732.114868,1766.825073 1732.276001,1764.215820 1732.477051,1760.960815 
	C1747.297119,1760.960815 1761.770752,1760.960815 1776.955078,1760.960815 
	C1777.190308,1762.959595 1777.552856,1765.138550 1777.675537,1767.330811 
	C1777.804688,1769.638550 1777.704590,1771.959106 1777.704590,1775.485352 
	C1767.838989,1775.485352 1758.373413,1775.485352 1748.824341,1775.485352 
	C1748.824341,1781.240479 1748.824341,1785.779785 1748.824341,1791.320557 
	C1757.333862,1791.320557 1765.479736,1791.320557 1773.929688,1791.320557 
	C1773.929688,1796.808838 1773.929688,1801.277222 1773.929688,1806.400635 
	C1765.613647,1806.400635 1757.719482,1806.400635 1749.117188,1806.400635 
	C1749.117188,1812.482178 1749.117188,1817.925659 1749.117188,1824.268677 
	C1758.231689,1824.268677 1767.440918,1824.268677 1777.163330,1824.268677 
	C1777.163330,1829.304321 1777.163330,1833.475830 1777.163330,1838.022583 
	C1762.447510,1838.022583 1747.861450,1838.022583 1731.953735,1838.022583 
	C1731.953735,1815.646484 1731.953735,1793.496948 1731.953735,1770.390869 
z"/>
<path fill="#F6F6F6" opacity="1.000000" stroke="none" 
	d="
M1938.561157,1785.720581 
	C1934.175293,1777.210693 1930.156006,1769.349731 1925.712769,1760.659668 
	C1932.971924,1760.659668 1938.869141,1760.659668 1945.033325,1760.659668 
	C1949.945312,1770.706543 1954.835938,1780.709961 1960.429199,1792.150269 
	C1965.984009,1780.596191 1970.767822,1770.645874 1975.585815,1760.624268 
	C1981.639526,1760.624268 1987.213013,1760.624268 1993.741333,1760.624268 
	C1992.609741,1763.477173 1991.870605,1765.890747 1990.738037,1768.102783 
	C1985.305908,1778.712280 1980.073608,1789.442139 1974.167969,1799.785156 
	C1969.549561,1807.873657 1967.496948,1816.211060 1968.325439,1825.442383 
	C1968.676758,1829.356323 1968.384155,1833.328125 1968.384155,1837.823730 
	C1962.819946,1837.823730 1957.688354,1837.823730 1951.624023,1837.823730 
	C1951.624023,1833.961914 1951.260986,1830.019165 1951.692871,1826.165283 
	C1952.932373,1815.104248 1950.100708,1805.239624 1943.999023,1796.065674 
	C1941.990112,1793.045410 1940.600464,1789.613281 1938.561157,1785.720581 
z"/>
<path fill="#F8F8F8" opacity="1.000000" stroke="none" 
	d="
M1290.368774,1834.310791 
	C1289.435547,1836.212891 1288.573608,1838.109253 1287.565796,1838.190308 
	C1283.299805,1838.532837 1278.990234,1838.335693 1273.911865,1838.335693 
	C1273.911865,1817.572021 1273.911865,1797.120850 1273.911865,1775.825684 
	C1267.271240,1775.825684 1261.400879,1775.825684 1254.931641,1775.825684 
	C1254.931641,1770.530884 1254.931641,1766.064453 1254.931641,1760.941895 
	C1273.029175,1760.941895 1291.160522,1760.941895 1309.832764,1760.941895 
	C1309.832764,1765.513794 1309.832764,1770.354248 1309.832764,1775.957275 
	C1303.201904,1775.957275 1296.985718,1775.957275 1290.372925,1775.957275 
	C1290.372925,1795.633179 1290.372925,1814.551514 1290.368774,1834.310791 
z"/>
<path fill="#FBFBFB" opacity="1.000000" stroke="none" 
	d="
M2107.641357,1799.998779 
	C2107.641357,1786.403809 2107.641357,1773.808228 2107.641357,1760.767944 
	C2113.403320,1760.767944 2118.552246,1760.767944 2124.201660,1760.767944 
	C2124.201660,1781.657227 2124.201660,1802.213257 2124.201660,1824.006592 
	C2132.664551,1824.006592 2140.715088,1824.006592 2149.200928,1824.006592 
	C2149.200928,1829.396729 2149.200928,1833.553589 2149.200928,1837.979004 
	C2135.407715,1837.979004 2121.904297,1837.979004 2107.641357,1837.979004 
	C2107.641357,1825.413574 2107.641357,1813.205688 2107.641357,1799.998779 
z"/>
<path fill="#FBFBFB" opacity="1.000000" stroke="none" 
	d="
M846.050659,1761.795898 
	C851.260071,1760.694580 856.182007,1760.419922 861.946167,1760.098145 
	C861.946167,1781.536621 861.946167,1802.327026 861.946167,1823.989990 
	C870.570251,1823.989990 878.400635,1823.989990 886.953003,1823.989990 
	C886.953003,1828.945312 886.953003,1833.061646 886.953003,1837.779541 
	C873.740479,1837.779541 860.273865,1837.779541 845.763184,1837.779541 
	C845.763184,1812.887207 845.763184,1787.754761 846.050659,1761.795898 
z"/>
<path fill="#F4F4F4" opacity="1.000000" stroke="none" 
	d="
M2557.899658,1819.611084 
	C2566.228027,1821.493042 2568.347412,1823.625488 2568.377930,1829.426880 
	C2568.405518,1834.659546 2565.603760,1838.417969 2560.830322,1839.551758 
	C2555.088867,1840.915527 2549.707031,1837.992310 2548.441895,1832.822388 
	C2546.687256,1825.652710 2549.289062,1821.717896 2557.899658,1819.611084 
z"/>
<path fill="#060606" opacity="1.000000" stroke="none" 
	d="
M2336.748535,1814.903564 
	C2332.251221,1807.026611 2331.059082,1799.503174 2333.594238,1791.420166 
	C2336.533447,1782.049072 2342.700439,1776.610840 2351.886475,1775.694214 
	C2361.425049,1774.742188 2369.752686,1779.043213 2374.251709,1787.244629 
	C2379.208740,1796.281250 2377.566162,1810.810425 2370.456055,1817.649780 
	C2361.203125,1826.550781 2346.616943,1826.917358 2336.748535,1814.903564 
z"/>
<path fill="#060606" opacity="1.000000" stroke="none" 
	d="
M2215.788086,1818.383301 
	C2208.074219,1809.636230 2206.426758,1800.264160 2209.963623,1790.137695 
	C2212.790527,1782.043213 2218.448730,1776.729370 2227.254150,1775.798706 
	C2236.489746,1774.822388 2244.203613,1777.690186 2249.388672,1785.859619 
	C2257.384277,1798.458374 2251.875000,1814.189941 2243.846680,1819.722778 
	C2234.417725,1826.220947 2225.319336,1825.456177 2215.788086,1818.383301 
z"/>
<path fill="#060606" opacity="1.000000" stroke="none" 
	d="
M1845.693848,1785.797119 
	C1845.831421,1781.977417 1845.969116,1779.102051 1846.139038,1775.550781 
	C1851.267456,1775.801880 1855.881470,1775.598389 1860.326416,1776.369751 
	C1864.518921,1777.097290 1867.421753,1779.936157 1867.576660,1784.544312 
	C1867.725098,1788.953857 1865.613037,1792.512817 1861.486572,1793.734009 
	C1856.875854,1795.098755 1851.956421,1795.420288 1846.295776,1796.337646 
	C1846.052856,1792.465698 1845.873291,1789.603638 1845.693848,1785.797119 
z"/>
<path fill="#060606" opacity="1.000000" stroke="none" 
	d="
M1174.423096,1788.683350 
	C1177.421997,1795.118896 1179.752441,1801.882324 1182.287354,1809.239136 
	C1176.790649,1809.239136 1171.995972,1809.239136 1165.974609,1809.239136 
	C1168.701172,1802.150269 1171.227905,1795.580688 1174.423096,1788.683350 
z"/>
</svg>